<?xml version="1.0" encoding="utf-8"?>
<!-- Generator: Adobe Illustrator 22.1.0, SVG Export Plug-In . SVG Version: 6.00 Build 0)  -->
<svg version="1.1" xmlns="http://www.w3.org/2000/svg" xmlns:xlink="http://www.w3.org/1999/xlink" x="0px" y="0px"
	 viewBox="0 0 280 70" style="enable-background:new 0 0 280 70;" xml:space="preserve">
<style type="text/css">
	.st5{stroke-width:0.5;stroke-miterlimit:10;}
</style>
<g>
	<path class="st0" d="M252.3,18.5v-2h-5.6v37.1h5.6V23.4c0.8-1,1.6-1.6,2.5-1.7c0.9-0.1,1.7,0.1,2.4,0.7v-6.2
		C255.2,16.1,253.5,16.9,252.3,18.5 M241.2,17.2c-1-0.7-2.1-1-3.5-1c-2,0-3.6,0.8-4.8,2.3V7.2h-5.6v32.2c0,0.9-0.4,1.8-1.4,2
		c-3,0.5-5.3,3-5.3,6.2c0,3.4,2.8,6.2,6.2,6.2c1.5,0,3-0.6,4-1.5c0,0,0,0,0.1-0.1c0.2-0.1,0.3-0.3,0.4-0.4c0.2-0.2,0.5-0.3,0.8-0.3
		c0.4,0,0.7,0.1,1,0.3c1.2,1.4,2.8,2.1,4.7,2.1c0.1,0,0.2,0,0.2,0c1.3,0,2.5-0.3,3.4-1c0.9-0.6,1.6-1.4,2-2.2c0.3-0.8,0.5-2,0.5-3.8
		c0-0.1,0-0.2,0-0.3V23.5c0-1.9-0.2-3.3-0.6-4.1C242.8,18.6,242.2,17.9,241.2,17.2 M238.2,44v2.1c0,0.7-0.2,1.3-0.7,1.7
		c-0.6,0.6-1.3,0.8-2.2,0.7c-0.8-0.1-1.7-0.7-2.4-1.8V23.5c0.7-1,1.5-1.6,2.4-1.7c0.9-0.1,1.7,0.1,2.2,0.7c0.5,0.4,0.7,1,0.7,1.7V44
		z" fill="#95C11F"/>
	<path class="st1" d="M230,47.6c0,1.8-1.4,3.2-3.2,3.2c-1.8,0-3.2-1.4-3.2-3.2c0-1.8,1.4-3.2,3.2-3.2C228.5,44.4,230,45.8,230,47.6" fill="#FEEB17"/>
	<path class="st2" d="M97.9,22.9c-0.6-0.6-1.4-0.8-2.4-0.6c-0.8,0.1-1.7,0.7-2.5,1.7v29.7h-5.4V17.1H93v2c1.2-1.5,2.8-2.3,4.8-2.3
		V22.9z" fill="#CFE09B"/>
	<path class="st2" d="M117.1,45.8c0,2.3-0.8,4.2-2.4,5.8c-1.6,1.6-3.5,2.4-5.7,2.4c-2.3,0-4.3-0.8-5.9-2.4c-1.6-1.6-2.4-3.5-2.4-5.8
		V25.1c0-2.2,0.8-4.2,2.4-5.8c1.6-1.6,3.5-2.4,5.8-2.4c2.3,0,4.2,0.8,5.8,2.4c1.6,1.6,2.4,3.5,2.4,5.8v15.2h-10.9v5.7
		c0,0.7,0.3,1.3,0.8,1.9c0.5,0.5,1.2,0.8,1.9,0.8c0.8,0,1.4-0.3,1.9-0.8c0.5-0.5,0.8-1.1,0.8-1.9v-2h5.5V45.8z M111.6,35.1V25
		c0-0.7-0.3-1.3-0.8-1.9c-0.5-0.5-1.2-0.8-1.9-0.8c-0.7,0-1.4,0.3-1.9,0.8c-0.5,0.5-0.8,1.2-0.8,1.9v10.2H111.6z" fill="#CFE09B"/>
	<path class="st2" d="M137,55.5c0,2.2-0.8,4-2.4,5.3c-1.6,1.3-3.5,2-5.8,2s-4.2-0.7-5.8-2c-1.6-1.4-2.3-3.1-2.3-5.3h5.4
		c0,0.7,0.3,1.4,0.8,1.9c0.5,0.5,1.1,0.8,1.9,0.8c0.8,0,1.4-0.3,1.9-0.8c0.5-0.5,0.8-1.2,0.8-1.9v-3.8c-1.2,1.5-2.8,2.3-4.8,2.3
		c-1.4,0-2.6-0.3-3.5-1c-0.9-0.6-1.6-1.4-1.9-2.1c-0.4-0.8-0.5-2.1-0.5-4.1V23.9c0-0.9,0.1-2.3,0.5-4.1c0.4-0.8,1-1.5,2-2.1
		c0.9-0.6,2.1-1,3.5-1c2,0,3.6,0.8,4.8,2.3v-2h5.5V55.5z M131.6,46.8V23.9c-0.8-1-1.6-1.5-2.4-1.7c-0.9-0.1-1.7,0.1-2.2,0.5
		c-0.5,0.5-0.8,1.1-0.8,1.8v2.1v19.5c0,0.7,0.2,1.2,0.6,1.7c0.6,0.6,1.4,0.8,2.3,0.6C129.9,48.3,130.8,47.8,131.6,46.8" fill="#CFE09B"/>
	<path class="st2" d="M140.7,53.6h5.5V17.1h-5.5V53.6z M140.7,13.4h5.5V8h-5.5V13.4z" fill="#CFE09B"/>
	<path class="st2" d="M165.9,43.5v2.3c0,2.3-0.8,4.2-2.4,5.8c-1.6,1.6-3.5,2.4-5.7,2.4c-2.3,0-4.2-0.8-5.8-2.4
		c-1.6-1.6-2.5-3.5-2.5-5.8l0.1-2.7h5.5v2.8c0,0.7,0.3,1.3,0.8,1.9c0.5,0.5,1.2,0.8,1.9,0.8c0.7,0,1.3-0.3,1.9-0.8
		c0.5-0.5,0.8-1.2,0.8-1.9v-1.2c0-0.9-0.1-2.1-0.3-3.6c-0.2-0.6-0.8-1.4-1.9-2.4c0,0-0.9-0.7-2.7-2c-0.7-0.5-1.8-1.4-3.3-2.7
		c-0.8-0.8-1.5-2-2.2-3.4c-0.3-0.5-0.4-1.3-0.4-2.2c0-1.3-0.1-2-0.1-2.2v-1.3c0-2.3,0.9-4.2,2.4-5.8c1.6-1.6,3.5-2.4,5.8-2.4
		c2.2,0,4.2,0.8,5.8,2.4c1.6,1.6,2.4,3.5,2.4,5.8v2.1h-5.4V25c0-0.7-0.3-1.3-0.8-1.9c-0.5-0.5-1.2-0.8-1.9-0.8
		c-0.8,0-1.4,0.3-1.9,0.8c-0.5,0.5-0.8,1.2-0.8,1.9v0.8c0,0.5,0.1,1.4,0.3,2.7c0.3,0.6,0.9,1.4,1.9,2.4c0.6,0.4,1.5,1,2.7,2
		c1,0.7,2,1.6,3,2.7c1.1,1.2,2,2.5,2.5,4C165.8,40.2,165.9,41.6,165.9,43.5" fill="#CFE09B"/>
	<path class="st2" d="M185.6,45.8c0,2.3-0.7,4.2-2.1,5.8c-1.4,1.6-3.2,2.4-5.4,2.4c-2.2,0-4-0.8-5.5-2.4c-1.4-1.6-2.1-3.5-2.1-5.8
		V22.6h-2.2v-5h2.2v-5.2h5.5v5.2h9.3v5H176v23.4c0,1.8,0.7,2.7,2.1,2.7c1.4,0,2-0.9,2-2.7V32.8h5.5V45.8z" fill="#CFE09B"/>
	<path class="st2" d="M198.5,22.9c-0.6-0.6-1.4-0.8-2.4-0.6c-0.9,0.1-1.7,0.7-2.5,1.7v29.7h-5.5V17.1h5.5v2c1.2-1.5,2.8-2.3,4.8-2.3
		V22.9z" fill="#CFE09B"/>
	<path class="st2" d="M217.8,45.8c0,2.3-0.8,4.2-2.4,5.8c-1.6,1.6-3.5,2.4-5.8,2.4c-2.3,0-4.2-0.8-5.8-2.4c-1.6-1.6-2.5-3.5-2.5-5.8
		l0.1-20.7c0-2.2,0.8-4.2,2.4-5.8c1.6-1.6,3.5-2.4,5.8-2.4c2.3,0,4.2,0.8,5.8,2.4c1.6,1.6,2.4,3.5,2.4,5.8V45.8z M212.3,45.9V25
		c0-0.7-0.3-1.3-0.8-1.9c-0.5-0.5-1.2-0.8-1.9-0.8c-0.8,0-1.4,0.3-1.9,0.8c-0.5,0.5-0.8,1.2-0.8,1.9v21c0,0.7,0.3,1.3,0.8,1.9
		c0.5,0.5,1.2,0.8,1.9,0.8c0.7,0,1.4-0.3,1.9-0.8C212,47.3,212.3,46.6,212.3,45.9" fill="#CFE09B"/>
</g>
<g>
	<path class="st3" d="M54.4,32.8v1.1c0,0.4-0.1,0.6-0.4,0.9c-0.3,0.3-0.7,0.4-1.2,0.3c-0.4-0.1-0.9-0.4-1.2-0.9v-12
		c0.4-0.5,0.8-0.8,1.2-0.9c0.5-0.1,0.9,0,1.2,0.3c0.2,0.2,0.4,0.5,0.4,0.9V32.8z M48.5,36.3c-0.9,0-1.7-0.7-1.7-1.7
		c0-0.9,0.7-1.6,1.7-1.6s1.7,0.7,1.7,1.6C50.2,35.6,49.4,36.3,48.5,36.3 M56,19.1c-0.5-0.3-1.1-0.5-1.8-0.5c-1,0-1.9,0.4-2.5,1.2
		v-5.8h-2.9v16.6c0,0.5-0.2,0.9-0.7,1.1c-1.5,0.2-2.7,1.6-2.7,3.2c0,1.8,1.4,3.2,3.2,3.2c0.8,0,1.5-0.3,2.1-0.8l0,0c0,0,0,0,0,0
		c0.1-0.1,0.2-0.1,0.2-0.2c0.1-0.1,0.2-0.2,0.4-0.2c0.2,0,0.3,0,0.5,0.2c0.6,0.7,1.4,1.1,2.4,1.1c0,0,0.1,0,0.1,0
		c0.7,0,1.3-0.2,1.7-0.5c0.5-0.3,0.8-0.7,1-1.1c0.2-0.4,0.3-1.1,0.3-2c0,0,0-0.1,0-0.1V22.3c0-1-0.1-1.7-0.3-2.1
		C56.8,19.8,56.5,19.4,56,19.1" fill="#DADADA"/>
	<path class="st3" d="M61.7,19.7v-1h-2.9v19.1h2.9V22.2c0.4-0.5,0.8-0.8,1.3-0.9c0.5-0.1,0.9,0,1.2,0.3v-3.2
		C63.1,18.5,62.3,18.9,61.7,19.7" fill="#DADADA"/>
	<path class="st4" d="M28.3,37.8h-2.9V22.7c0-0.4-0.1-0.6-0.4-0.9c-0.3-0.3-0.7-0.4-1.2-0.3c-0.4,0.1-0.8,0.4-1.2,0.9v15.4h-2.9v-19
		h2.9v1c0.6-0.8,1.5-1.2,2.5-1.2c0.7,0,1.3,0.2,1.8,0.5c0.5,0.3,0.8,0.7,1,1.1c0.2,0.4,0.3,1.1,0.3,2.1V37.8z" fill="#9D9D9C"/>
	<path class="st4" d="M30.3,37.8h2.9v-19h-2.9V37.8z M30.3,16.8h2.9V14h-2.9V16.8z" fill="#9D9D9C"/>
	<path class="st4" d="M43.4,33.6c0,1.2-0.4,2.2-1.2,3c-0.8,0.8-1.8,1.2-3,1.2c-1.2,0-2.2-0.4-3-1.2c-0.9-0.8-1.3-1.8-1.3-3V22.9
		c0-1.2,0.4-2.2,1.2-3c0.8-0.8,1.8-1.2,3-1.2s2.2,0.4,3,1.2c0.8,0.8,1.2,1.8,1.2,3v6.7h-2.9v-6.8c0-0.4-0.1-0.7-0.4-1
		c-0.3-0.3-0.6-0.4-1-0.4c-0.4,0-0.7,0.1-1,0.4c-0.3,0.3-0.4,0.6-0.4,1v11c0,0.4,0.1,0.7,0.4,1c0.3,0.3,0.6,0.4,1,0.4
		c0.4,0,0.7-0.1,1-0.4c0.3-0.3,0.4-0.6,0.4-1v-1.1h2.9V33.6z" fill="#9D9D9C"/>
</g>
<line class="st5" x1="74.2" y1="5.8" x2="74.2" y2="64.2" fill="#D5D4D4" stroke="#B2B2B2"/>
</svg>
