<svg xmlns="http://www.w3.org/2000/svg" viewBox="0 0 512 512">
  <path fill="#32BCAD" d="M389.6 315.6c-17.3 0-33.5-6.7-45.7-18.9l-65.4-65.4c-5.5-5.5-14.4-5.5-19.9 0l-65.7 65.7c-12.2 12.2-28.4 18.9-45.7 18.9h-12.9l82.8 82.8c24.9 24.9 65.3 24.9 90.2 0l83.1-83.1h-1z"/>
  <path fill="#32BCAD" d="M213.2 196.4c12.2-12.2 28.4-18.9 45.7-18.9h1c17.3 0 33.5 6.7 45.7 18.9l65.4 65.4c5.5 5.5 14.4 5.5 19.9 0l65.7-65.7c12.2-12.2 28.4-18.9 45.7-18.9h.7l-83.1-83.1c-24.9-24.9-65.3-24.9-90.2 0l-82.8 82.8h-12.9c-17.3 0-33.5 6.7-45.7 18.9l-65.4 65.4c-5.5 5.5-5.5 14.4 0 19.9l19.5 19.5 65.8-65.8c.1-.4.1-.4 5-6.4z"/>
  <path fill="#32BCAD" d="M502.6 233.4l-47-47h-.7c-12.3 0-24 4.8-32.7 13.5l-65.7 65.7c-10.2 10.2-23.8 15.8-38.3 15.8s-28.1-5.7-38.3-15.8l-65.4-65.4c-8.7-8.7-20.4-13.5-32.7-13.5h-16.5l-47 47c-13 13-13 34.1 0 47.1l47 47h16.5c12.3 0 24-4.8 32.7-13.5l65.4-65.4c10.2-10.2 23.8-15.8 38.3-15.8s28.1 5.7 38.3 15.8l65.7 65.7c8.7 8.7 20.4 13.5 32.7 13.5h.7l47-47c13-13.1 13-34.2 0-47.2z"/>
</svg>
